<?xml version="1.0" encoding="UTF-8" standalone="no"?>
<!-- Created with Inkscape (http://www.inkscape.org/) -->

<svg
   width="145mm"
   height="75mm"
   viewBox="0 0 145 75"
   version="1.1"
   id="svg1"
   inkscape:version="1.3.2 (091e20e, 2023-11-25)"
   sodipodi:docname="froxtw.svg"
   xmlns:inkscape="http://www.inkscape.org/namespaces/inkscape"
   xmlns:sodipodi="http://sodipodi.sourceforge.net/DTD/sodipodi-0.dtd"
   xmlns="http://www.w3.org/2000/svg"
   xmlns:svg="http://www.w3.org/2000/svg">
  <sodipodi:namedview
     id="namedview1"
     pagecolor="#ffffff"
     bordercolor="#000000"
     borderopacity="0.25"
     inkscape:showpageshadow="2"
     inkscape:pageopacity="0.0"
     inkscape:pagecheckerboard="true"
     inkscape:deskcolor="#aaaaaa"
     inkscape:document-units="mm"
     showguides="true"
     inkscape:zoom="0.89984155"
     inkscape:cx="267.82493"
     inkscape:cy="160.58383"
     inkscape:window-width="1280"
     inkscape:window-height="776"
     inkscape:window-x="0"
     inkscape:window-y="28"
     inkscape:window-maximized="0"
     inkscape:current-layer="layer1" />
  <defs
     id="defs1" />
  <g
     inkscape:label="Layer 1"
     inkscape:groupmode="layer"
     id="layer1">
    <path
       style="fill:#696969;fill-opacity:1;stroke:#000000;stroke-width:4;stroke-linejoin:round;stroke-dasharray:none;stroke-opacity:1;stroke-linecap:round"
       d="M 11.195649,6.1404866 7.0826977,68.615294 21.915861,68.808566 19.060501,40.340925 33.060036,38.814647 35.120801,26.139423 18.89949,32.577055 l 0.506221,-12.2929 c 0,0 12.295043,2.034131 17.447165,-1.342672 C 42.164343,15.460242 39.96197,5.344315 39.96197,5.344315 Z"
       id="path1"
       sodipodi:nodetypes="ccccccccscc" />
    <path
       style="fill:#696969;fill-opacity:1;stroke:#000000;stroke-width:4;stroke-linejoin:round;stroke-dasharray:none;stroke-opacity:1;stroke-linecap:round"
       d="m 34.815767,30.106428 -6.392988,38.34804 14.743264,0.487252 -1.970515,-28.512027 6.740443,0.34993 c 0,0 2.09074,-5.92753 3.13611,-8.891295 l -8.837528,1.429492 1.115754,-3.818794 z"
       id="path2"
       sodipodi:nodetypes="ccccccccc" />
    <path
       id="path3"
       style="fill:#696969;stroke:#000000;stroke-width:4;stroke-linejoin:round;stroke-dasharray:none;stroke-linecap:round"
       d="m 57.707429,32.785205 c -0.196376,5.77e-4 -0.397169,0.009 -0.602548,0.02532 -6.802244,0.539644 -11.590309,9.00792 -12.207351,19.030937 -0.617043,10.023018 1.604507,17.787799 8.212246,18.479951 C 60.623667,71.108484 64.78702,62.410502 65.195344,51.14739 65.590906,40.23625 63.795058,32.767329 57.707429,32.785203 Z m -1.533963,11.387344 c 1.793294,-2.29e-4 1.970454,3.867893 1.854527,7.678304 -0.115927,3.810411 -1.577937,6.862825 -3.255268,6.862595 -1.677331,-2.29e-4 -2.383572,-3.321147 -1.966932,-7.324974 0.41664,-4.003827 1.574379,-7.215695 3.367673,-7.215925 z"
       sodipodi:nodetypes="ccssssczzzzz" />
    <path
       style="fill:#ffffff;fill-opacity:1;stroke:#000000;stroke-width:4;stroke-linejoin:round;stroke-dasharray:none;stroke-linecap:round"
       d="M 47.6357,5.588365 47.119124,16.298308 53.68819,14.873855 55.361227,5.154647 Z"
       id="path4"
       sodipodi:nodetypes="ccccc" />
    <path
       style="fill:#ffffff;fill-opacity:1;stroke:#000000;stroke-width:4;stroke-linejoin:round;stroke-dasharray:none;stroke-linecap:round"
       d="m 44.878313,20.84018 -0.262512,5.230235 12.848406,0.444433 2.532973,-7.220554 z"
       id="path5"
       sodipodi:nodetypes="ccccc" />
    <path
       style="fill:#ffffff;fill-opacity:1;stroke:#000000;stroke-width:4;stroke-linejoin:round;stroke-dasharray:none;stroke-linecap:round"
       d="M 63.346315,5.1232134 61.664834,15.319792 69.129431,15.081233 70.482428,5.008846 Z"
       id="path6"
       sodipodi:nodetypes="ccccc" />
    <path
       style="fill:#696969;stroke:#000000;stroke-width:4;stroke-linejoin:round;stroke-dasharray:none;stroke-linecap:round"
       d="m 62.139724,27.897593 c 0,0 4.627812,13.837738 4.698751,22.466415 0.06177,7.513921 -4.688848,19.476741 -4.688848,19.476741 l 9.511621,0.616605 2.772067,-14.683141 1.291555,15.04382 11.711182,-0.398471 c 0,0 -1.832438,-10.122127 -2.76345,-20.265067 -0.601207,-6.549872 1.406525,-22.224728 1.406525,-22.224728 L 75.69116,28.269891 75.087712,44.089893 71.628757,29.093226 Z"
       id="path7"
       sodipodi:nodetypes="cscccccsccccc" />
    <path
       style="fill:#ffffff;fill-opacity:1;stroke:#000000;stroke-width:4;stroke-linejoin:round;stroke-dasharray:none;stroke-linecap:round"
       d="m 93.744476,10.582156 8.977914,60.124345 12.11485,-0.285071 2.17195,-26.899423 2.36859,27.264979 8.36799,-0.0668 C 134.02189,51.745705 137.60562,36.84448 138.19933,6.2907151 L 126.17623,5.7442782 125.83714,36.716298 122.07698,6.1673509 111.7835,6.1969579 108.76741,36.505204 106.61229,8.4271842 Z"
       id="path9"
       sodipodi:nodetypes="cccccccccccccc" />
    <g
       id="g1"
       style="stroke-width:4;stroke-dasharray:none;stroke-linecap:round">
      <path
         style="fill:#ffffff;fill-opacity:1;stroke:#000000;stroke-width:4;stroke-linejoin:round;stroke-dasharray:none;stroke-linecap:round"
         d="M 75.995682,5.2149793 72.955991,26.216479 88.401812,17.213293 87.739943,70.844668 103.05447,70.233964 97.11055,17.355231 108.30175,16.899235 108.48703,5.2695775 Z"
         id="path8"
         sodipodi:nodetypes="ccccccccc" />
    </g>
  </g>
</svg>
