<?xml version="1.0" encoding="UTF-8" standalone="no"?>
<svg
   viewbox="0 0 675 400"
   width="178.59375mm"
   height="100mm"
   version="1.1"
   id="svg12"
   sodipodi:docname="htmx.svg"
   inkscape:version="1.3.2 (091e20e, 2023-11-25)"
   xmlns:inkscape="http://www.inkscape.org/namespaces/inkscape"
   xmlns:sodipodi="http://sodipodi.sourceforge.net/DTD/sodipodi-0.dtd"
   xmlns="http://www.w3.org/2000/svg"
   xmlns:svg="http://www.w3.org/2000/svg">
  <sodipodi:namedview
     id="namedview12"
     pagecolor="#ffffff"
     bordercolor="#000000"
     borderopacity="0.25"
     inkscape:showpageshadow="2"
     inkscape:pageopacity="0.0"
     inkscape:pagecheckerboard="0"
     inkscape:deskcolor="#d1d1d1"
     inkscape:zoom="0.69090515"
     inkscape:cx="344.47565"
     inkscape:cy="226.51445"
     inkscape:window-width="1280"
     inkscape:window-height="800"
     inkscape:window-x="0"
     inkscape:window-y="32"
     inkscape:window-maximized="0"
     inkscape:current-layer="g12"
     inkscape:document-units="mm" />
  <defs
     id="defs1" />
  <g
     id="g12"
     inkscape:label="Layer 1">
    <path
       class="vector-data"
       d="m 85.947689,34.254412 c 0,0 -49.212777,315.941998 -51.345069,315.941998 -2.132293,0 73.85895,2.51781 71.72666,2.51781 -2.13229,0 -0.93428,-122.95707 -0.93428,-122.95707 0,0 31.98091,-6.23055 31.98091,-6.23055 0,0 -19.18854,134.99518 -19.18854,134.99518 0,0 85.28243,-3.11527 85.28243,-3.11527 0,0 -23.80857,-178.20822 -23.80857,-178.20822 0,0 -59.3418,-9.74661 -59.3418,-9.74661 0,0 36.24502,-124.610934 36.24502,-124.610934 z"
       fill="#ffffff"
       stroke="#000000"
       stroke-width="15"
       stroke-dasharray="none"
       stroke-dashoffset="0"
       stroke-linecap="round"
       stroke-linejoin="round"
       stroke-miterlimit="4"
       id="path2"
       inkscape:label="path2"
       style="stroke-width:15.5692;stroke-dasharray:none" />
    <path
       class="vector-data"
       d="m 318.86767,343.33165 40.77772,-164.29108 49.04704,-1.03233 -14.29481,25.52849 c 0,0 51.27872,-26.2226 80.68784,-10.92316 29.40914,15.29945 15.14651,153.44711 15.14651,153.44711 l -59.6977,2.07685 15.70176,-108.75947 -12.14095,0.98554 -3.56081,91.15915 -46.90534,-4.1537 18.12252,-86.18924 -13.18492,-1.30898 -8.13569,105.15143 z"
       fill="#ffffff"
       stroke="#000000"
       stroke-width="15"
       stroke-dasharray="none"
       stroke-dashoffset="0"
       stroke-linecap="round"
       stroke-linejoin="round"
       stroke-miterlimit="4"
       id="path3"
       sodipodi:nodetypes="cccczcccccccccc"
       style="stroke-width:15.5692;stroke-dasharray:none" />
    <path
       class="vector-data"
       d="m 189.07247,181.39539 c 0,-1.36552 17.59541,60.82285 17.59541,60.82285 0,0 41.68251,-8.43826 41.68251,-8.43826 0,0 -31.78165,110.89889 -31.78165,110.89889 0,0 80.48573,-1.5741 80.48573,-1.5741 0,0 -0.70585,-110.01236 -0.70585,-110.01236 0,0 35.04482,7.04898 35.04482,7.04898 0,0 22.61205,-54.11392 22.61205,-54.11392 0,0 -53.42173,0.99726 -53.42173,0.99726 0,0 4.23513,-26.12794 4.23513,-26.12794 0,0 -58.58606,0.68757 -58.58606,0.68757 0,0 -1.41171,23.37764 -1.41171,23.37764 z"
       fill="#ffffff"
       stroke="#000000"
       stroke-width="15"
       stroke-dasharray="none"
       stroke-dashoffset="0"
       stroke-linecap="round"
       stroke-linejoin="round"
       stroke-miterlimit="4"
       id="path4"
       style="stroke-width:15.5692;stroke-dasharray:none" />
    <path
       class="vector-data"
       d="m 521.90706,27.722916 -74.3473,11.254755 c 0,0 42.15843,94.963549 50.60489,139.724299 11.19396,59.32069 -7.93749,160.42156 -7.93749,160.42156 l 65.54401,-5.98288 6.86711,-119.3689 9.66862,129.5599 77.75977,-3.66069 c 0,0 -36.59557,-99.61707 -40.33223,-162.01672 -2.72352,-45.48097 21.92069,-147.580589 21.92069,-147.580589 l -69.4282,-0.948029 -7.60828,94.012098 z"
       fill="#3d72d7"
       stroke="#000000"
       stroke-width="15"
       stroke-dasharray="none"
       stroke-dashoffset="0"
       stroke-linecap="round"
       stroke-linejoin="round"
       stroke-miterlimit="4"
       id="path5"
       sodipodi:nodetypes="ccscccccscccc"
       style="stroke-width:15.5692;stroke-dasharray:none" />
    <path
       class="vector-data"
       d="m 194.86081,39.795714 c 0,0 -48.33812,93.361136 -48.33812,93.361136 0,0 56.3281,36.00584 56.3281,36.00584 0,0 16.07288,-21.42087 16.07288,-21.42087 0,0 -33.42545,-28.39663 -33.42545,-28.39663 0,0 32.15898,-46.240393 32.15898,-46.240393 z"
       fill="#ffffff"
       stroke="#000000"
       stroke-width="12"
       stroke-dasharray="none"
       stroke-dashoffset="0"
       stroke-linecap="round"
       stroke-linejoin="round"
       stroke-miterlimit="4"
       id="path6"
       style="stroke-width:15.5692;stroke-dasharray:none" />
    <path
       class="vector-data"
       d="m 239.14951,62.588037 c 0,0 80.20449,-5.677227 80.20449,-5.677227 0,0 -5.96031,30.007117 -5.96031,30.007117 0,0 -88.74697,6.962317 -88.74697,6.962317 z"
       fill="#ffffff"
       stroke="#000000"
       stroke-width="12"
       stroke-dasharray="none"
       stroke-dashoffset="0"
       stroke-linecap="round"
       stroke-linejoin="round"
       stroke-miterlimit="4"
       id="path7"
       style="stroke-width:15.5692;stroke-dasharray:none" />
    <path
       class="vector-data"
       d="m 221.66863,115.34739 c 0,0 10.77862,27.38646 10.77862,27.38646 0,0 70.28887,-1.8505 70.28887,-1.8505 0,0 5.89263,-33.07848 5.89263,-33.07848 z"
       fill="#ffffff"
       stroke="#000000"
       stroke-width="12"
       stroke-dasharray="none"
       stroke-dashoffset="0"
       stroke-linecap="round"
       stroke-linejoin="round"
       stroke-miterlimit="4"
       id="path8"
       style="stroke-width:15.5692;stroke-dasharray:none" />
    <path
       class="vector-data"
       d="m 321.13671,147.8382 c 0,0 37.73147,-0.0964 37.73147,-0.0964 0,0 22.16315,-87.590555 22.16315,-87.590555 q 0,0 -39.64364,-1.082607 z"
       fill="#3d72d7"
       stroke="#000000"
       stroke-width="12"
       stroke-dasharray="none"
       stroke-dashoffset="0"
       stroke-linecap="round"
       stroke-linejoin="round"
       stroke-miterlimit="4"
       id="path9"
       style="stroke-width:15.5692;stroke-dasharray:none" />
    <path
       class="vector-data"
       d="m 396.49307,80.697279 15.11636,-35.059296 52.84361,70.819777 -39.16691,46.97946 -51.10768,-9.11542 43.41529,-39.26642 z"
       fill="#ffffff"
       stroke="#000000"
       stroke-width="12"
       stroke-dasharray="none"
       stroke-dashoffset="0"
       stroke-linecap="round"
       stroke-linejoin="round"
       stroke-miterlimit="4"
       id="path10"
       sodipodi:nodetypes="ccccccc"
       style="stroke-width:15.5692;stroke-dasharray:none" />
  </g>
</svg>
