<?xml version="1.0" encoding="UTF-8" standalone="no"?>
<svg
   viewbox="0 0 749 399"
   width="190mm"
   height="100mm"
   version="1.1"
   id="svg13"
   sodipodi:docname="jetzig.svg"
   inkscape:version="1.3.2 (091e20e, 2023-11-25)"
   xmlns:inkscape="http://www.inkscape.org/namespaces/inkscape"
   xmlns:sodipodi="http://sodipodi.sourceforge.net/DTD/sodipodi-0.dtd"
   xmlns="http://www.w3.org/2000/svg"
   xmlns:svg="http://www.w3.org/2000/svg">
  <sodipodi:namedview
     id="namedview13"
     pagecolor="#ffffff"
     bordercolor="#000000"
     borderopacity="0.25"
     inkscape:showpageshadow="2"
     inkscape:pageopacity="0.0"
     inkscape:pagecheckerboard="0"
     inkscape:deskcolor="#d1d1d1"
     inkscape:document-units="mm"
     inkscape:zoom="0.60398005"
     inkscape:cx="343.55439"
     inkscape:cy="184.60875"
     inkscape:window-width="1280"
     inkscape:window-height="776"
     inkscape:window-x="0"
     inkscape:window-y="28"
     inkscape:window-maximized="0"
     inkscape:current-layer="g11" />
  <defs
     id="defs2">
    <linearGradient
       id="11057717937732220567"
       x1="174.26205"
       x2="287.91122"
       y1="155.00352"
       y2="163.05566"
       gradientTransform="matrix(1.8697467,0,0,0.58383056,-41.190225,-20.347152)"
       gradientUnits="userSpaceOnUse">
      <stop
         offset="0"
         stop-color="#3AB54BFF"
         id="stop1"
         style="stop-color:#3ab54b;stop-opacity:1;" />
      <stop
         offset="1"
         stop-color="#F7931DFF"
         id="stop2"
         style="stop-color:#f7931d;stop-opacity:1;" />
    </linearGradient>
  </defs>
  <g
     class="artboard"
     id="g11"
     inkscape:label="Layer 1">
    <path
       class="vector-data"
       d="m 495.33963,61.968936 c 0,0 -33.00713,-25.334805 -33.00713,-26.618602 0,-0.64189 35.12745,-3.894595 102.81798,20.285139 61.14423,21.841343 102.97494,69.952267 102.97494,69.952267 0,0 -42.40148,-10.85467 -91.28288,-5.6511 -48.62168,5.17589 -84.986,34.59687 -84.986,34.59687 0,0 40.58427,-54.27331 40.58427,-54.27331 0,0 -126.17531,-30.776511 -192.92288,-3.704208 -63.78344,25.870118 -103.75129,80.028868 -104.31168,80.028868 -1.0924,0 -28.4943,-37.27718 -53.74377,-80.481352 C 167.01039,71.374613 249.12751,29.477416 359.295,31.33635 432.22286,32.5669 495.33963,61.968936 495.33963,61.968936 Z"
       fill="url('#11057717937732220567')"
       stroke="#000000"
       stroke-width="10.1945"
       stroke-dasharray="none"
       stroke-dashoffset="0"
       stroke-linecap="round"
       stroke-linejoin="round"
       stroke-miterlimit="4"
       id="path3"
       style="fill:url(#11057717937732220567);fill-opacity:1;stroke-width:15.4941;stroke-dasharray:none" />
    <path
       class="vector-data"
       d="m 144.38646,186.01108 c 0,0 3.25571,156.65942 3.25571,156.65942 0,0 98.7572,-9.72372 98.7572,-9.72372 0,0 22.51733,-81.14724 22.51733,-81.14724 0,0 -79.11506,36.18927 -79.11506,36.18927 0,0 -1.03585,-19.59327 -1.03585,-19.59327 0,0 66.65479,-8.49101 66.65479,-8.49101 0,0 -2.50975,-84.69754 -2.50975,-84.69754 0,0 -59.28419,-40.39041 -59.28419,-40.39041 z"
       fill="#f7931d"
       stroke="#000000"
       stroke-width="15.2917"
       stroke-dasharray="none"
       stroke-dashoffset="0"
       stroke-linecap="round"
       stroke-linejoin="round"
       stroke-miterlimit="4"
       id="path4"
       style="stroke-width:15.4941;stroke-dasharray:none" />
    <path
       class="vector-data"
       d="m 256.61515,159.31456 c 0,0 3.62706,66.23814 3.62706,66.23814 0,0 26.29238,-3.01623 26.29238,-3.01623 0,0 -19.51559,123.37523 -19.51559,123.37523 0,0 82.83253,-2.55581 82.83253,-2.55581 0,0 -13.34711,-119.35627 -13.34711,-119.35627 0,0 32.87735,6.12797 32.87735,6.12797 0,0 -9.19069,-66.33579 -9.19069,-66.33579 0,0 -21.97808,0.95555 -21.97808,0.95555 0,0 2.36243,-31.83599 1.29902,-31.83599 -1.06346,0 -49.52311,5.48366 -49.52311,5.48366 0,0 -1.23608,25.84177 -1.23608,25.84177 z"
       fill="#f7931d"
       stroke="#000000"
       stroke-width="15.2917"
       stroke-dasharray="none"
       stroke-dashoffset="0"
       stroke-linecap="round"
       stroke-linejoin="round"
       stroke-miterlimit="4"
       id="path5"
       style="stroke-width:15.4941;stroke-dasharray:none" />
    <path
       class="vector-data"
       d="m 369.72404,200.72316 64.88455,-42.63918 -84.42443,101.54377 -0.4093,85.1552 129.66729,4.44518 2.7178,-80.66229 -65.67584,19.89753 69.19433,-68.28476 11.96949,-116.23925 -144.88563,-2.3268 z"
       fill="#3ab54b"
       stroke="#000000"
       stroke-width="15.2917"
       stroke-dasharray="none"
       stroke-dashoffset="0"
       stroke-linecap="round"
       stroke-linejoin="round"
       stroke-miterlimit="4"
       id="path6"
       style="stroke-width:15.4941;stroke-dasharray:none"
       sodipodi:nodetypes="ccccccccccc" />
    <path
       class="vector-data"
       d="m 501.88045,161.02957 c 0,0 -18.76372,168.60167 -18.76372,168.60167 0,0 81.25779,14.19317 81.25779,14.19317 0,0 -2.28846,-205.37217 -2.28846,-205.37217 0,0 -59.1422,21.51865 -60.20561,22.57733 z"
       fill="#3ab54b"
       stroke="#000000"
       stroke-width="15.2917"
       stroke-dasharray="none"
       stroke-dashoffset="0"
       stroke-linecap="round"
       stroke-linejoin="round"
       stroke-miterlimit="4"
       id="path7"
       style="stroke-width:15.4941;stroke-dasharray:none" />
    <path
       id="path8"
       class="vector-data"
       d="m 618.55629,122.64083 c -16.34302,0.2535 -31.70247,4.2299 -40.56436,15.75521 -22.83998,29.70456 -6.48737,124.44333 -6.48737,124.44333 l 76.08323,18.52427 c 0,0 -8.1439,18.53038 -7.08043,18.53038 1.06337,0 -66.63243,-33.16777 -66.63243,-33.16777 l -17.35139,81.91365 136.26094,0.96715 -8.24211,-214.37101 c 0,0 -34.78583,-13.07922 -65.98608,-12.59521 z m 15.452,52.65712 2.52173,52.13684 c 0,0 -18.98407,1.5288 -18.98407,1.07414 0,-1.01034 -8.41918,-33.14484 2.39289,-46.61202 1.94646,-2.41283 14.06945,-6.59896 14.06945,-6.59896 z"
       style="fill:#3ab54b;fill-opacity:1;stroke:#000000;stroke-width:15.4941;stroke-linejoin:round;stroke-dasharray:none;stroke-opacity:1"
       sodipodi:nodetypes="ssccsccccsccscc" />
    <path
       class="vector-data"
       d="m 66.340229,40.647302 c 0,0 -14.474601,89.976618 -14.474601,89.976618 0,0 56.853662,-26.60295 56.853662,-26.60295 0,0 -42.987792,166.37098 -42.987792,166.37098 0,0 -30.321091,-66.72702 -30.321091,-66.72702 0,0 -30.990047,113.94134 -0.777362,136.25981 27.43073,20.26333 88.783235,9.90615 88.783235,9.90615 0,0 29.39405,-238.49415 29.39405,-238.49415 0,0 45.56069,24.87363 45.56069,24.87363 0,0 16.76139,-110.500487 16.76139,-110.500487 z"
       fill="#f7931d"
       stroke="#000000"
       stroke-width="15.2917"
       stroke-dasharray="none"
       stroke-dashoffset="0"
       stroke-linecap="round"
       stroke-linejoin="round"
       stroke-miterlimit="4"
       id="path9"
       style="stroke-width:15.4941;stroke-dasharray:none" />
    <path
       class="vector-data"
       d="m 201.66324,190.09739 c 0,0 -14.29438,39.11166 -14.29438,39.11166 -0.50893,1.01326 25.89593,-4.12492 25.89593,-4.12492 z"
       fill="#101827"
       stroke="#000000"
       stroke-width="12.5376"
       stroke-dasharray="none"
       stroke-dashoffset="0"
       stroke-linecap="round"
       stroke-linejoin="round"
       stroke-miterlimit="4"
       id="path10" />
  </g>
</svg>
