<?xml version="1.0" encoding="UTF-8" standalone="no"?>
<svg
   viewbox="0 0 949 379"
   width="251.08958mm"
   height="100mm"
   version="1.1"
   id="svg26"
   sodipodi:docname="typescript.svg"
   inkscape:version="1.3.2 (091e20e, 2023-11-25)"
   xmlns:inkscape="http://www.inkscape.org/namespaces/inkscape"
   xmlns:sodipodi="http://sodipodi.sourceforge.net/DTD/sodipodi-0.dtd"
   xmlns="http://www.w3.org/2000/svg"
   xmlns:svg="http://www.w3.org/2000/svg">
  <sodipodi:namedview
     id="namedview26"
     pagecolor="#ffffff"
     bordercolor="#000000"
     borderopacity="0.25"
     inkscape:showpageshadow="2"
     inkscape:pageopacity="0.0"
     inkscape:pagecheckerboard="0"
     inkscape:deskcolor="#d1d1d1"
     inkscape:document-units="mm"
     inkscape:zoom="0.40365557"
     inkscape:cx="270.0322"
     inkscape:cy="40.876433"
     inkscape:window-width="1280"
     inkscape:window-height="776"
     inkscape:window-x="0"
     inkscape:window-y="28"
     inkscape:window-maximized="0"
     inkscape:current-layer="g24" />
  <defs
     id="defs1" />
  <g
     class="artboard"
     id="g24"
     inkscape:label="Layer 1">
    <path
       class="vector-data"
       d="m 38.349569,44.886406 -3.998048,69.932544 26.527675,-9.25307 -22.408363,215.39508 61.211729,1.81656 -6.402616,-220.23679 98.258344,13.41781 1.86746,-73.78294 z"
       fill="#ffffff"
       stroke="#000000"
       stroke-width="15.9167"
       stroke-dasharray="none"
       stroke-dashoffset="0"
       stroke-linecap="round"
       stroke-linejoin="round"
       stroke-miterlimit="4"
       id="path2"
       style="fill:#007acc;fill-opacity:1"
       sodipodi:nodetypes="ccccccccc" />
    <path
       class="vector-data"
       d="m 96.774764,137.47677 13.966436,111.0931 54.36866,3.38727 -9.04156,26.16582 -36.20971,-14.93825 -10.29037,56.61029 82.07331,-0.11457 19.59002,-180.08237 -49.13554,-7.69582 3.01385,64.64495 -18.0831,1.53916 4.52077,-70.80161 z"
       fill="#ffffff"
       stroke="#000000"
       stroke-width="15.9167"
       stroke-dasharray="none"
       stroke-dashoffset="0"
       stroke-linecap="round"
       stroke-linejoin="round"
       stroke-miterlimit="4"
       id="path3"
       style="fill:#007acc;fill-opacity:1"
       sodipodi:nodetypes="ccccccccccccc" />
    <path
       id="path4"
       style="fill:#007acc;fill-opacity:1;stroke:#000000;stroke-width:16.042;stroke-linecap:round;stroke-linejoin:round;stroke-dasharray:none;stroke-opacity:1"
       class="vector-data"
       d="m 265.50492,123.38398 -45.51031,5.73274 -10.67574,192.71605 74.238,-3.1062 -30.05242,-51.159 50.37858,2.99099 11.04485,-133.95388 -59.15334,15.69016 z m 5.90141,61.34647 -3.72127,37.9264 -14.58609,-19.95041 z"
       sodipodi:nodetypes="ccccccccccccc" />
    <path
       id="path5"
       style="fill:#007acc;fill-opacity:1;stroke:#000000;stroke-width:16.042;stroke-linecap:round;stroke-linejoin:round;stroke-dasharray:none;stroke-opacity:1"
       class="vector-data"
       d="m 368.60801,126.17809 -50.87278,55.84448 2.43618,139.26142 78.71871,-2.74174 2.44029,-61.18345 -37.03287,16.2892 -6.87793,-28.18406 39.9243,4.81952 21.89286,-69.07565 z m -4.9708,57.03759 11.0517,18.28647 -22.11694,8.17512 z"
       sodipodi:nodetypes="cccccccccccccc" />
    <path
       class="vector-data"
       d="m 430.09646,49.72572 -7.16158,159.49093 52.17968,19.33743 c 0,0 -7.92538,30.3557 -8.83498,30.3557 -0.90962,0 -44.22929,-37.92191 -44.22929,-38.85098 0,-0.92908 -16.66474,108.60563 -16.66474,108.60563 l 106.59155,-8.70977 10.09171,-143.23489 -50.40031,-32.50421 12.05539,-26.16581 44.30136,44.07422 -2.12165,-111.194163 c 0,0 -96.34999,-1.204087 -95.80714,-1.204087 z"
       fill="#ffffff"
       stroke="#000000"
       stroke-width="15.9167"
       stroke-dasharray="none"
       stroke-dashoffset="0"
       stroke-linecap="round"
       stroke-linejoin="round"
       stroke-miterlimit="4"
       id="path6"
       style="fill:#ffffff;fill-opacity:1"
       sodipodi:nodetypes="cccsscccccccc" />
    <path
       class="vector-data"
       d="m 533.04743,142.7176 -17.42306,185.25776 91.26812,-14.16847 -9.01166,-69.49378 -31.03464,17.26783 8.17591,-68.22055 28.55708,21.87605 11.8744,-62.50783 -32.40987,-27.43351 c 0,0 -50.35817,17.4225 -49.99628,17.4225 z"
       fill="#ffffff"
       stroke="#000000"
       stroke-width="15.9167"
       stroke-dasharray="none"
       stroke-dashoffset="0"
       stroke-linecap="round"
       stroke-linejoin="round"
       stroke-miterlimit="4"
       id="path7"
       style="fill:#ffffff;fill-opacity:1"
       sodipodi:nodetypes="cccccccccc" />
    <path
       class="vector-data"
       d="m 622.57581,113.5203 -17.48807,212.73336 82.05763,13.46999 -22.53706,-138.88241 38.37457,4.7305 -2.32782,-78.29848 -40.67816,26.93872 4.7838,-35.40024 z"
       fill="#ffffff"
       stroke="#000000"
       stroke-width="15.9167"
       stroke-dasharray="none"
       stroke-dashoffset="0"
       stroke-linecap="round"
       stroke-linejoin="round"
       stroke-miterlimit="4"
       id="path8"
       style="fill:#ffffff;fill-opacity:1"
       sodipodi:nodetypes="ccccccccc" />
    <path
       class="vector-data"
       d="m 713.10425,137.44275 -27.83777,198.60449 60.01651,0.3749 3.78781,-199.10482 z"
       fill="#ffffff"
       stroke="#000000"
       stroke-width="15.9167"
       stroke-dasharray="none"
       stroke-dashoffset="0"
       stroke-linecap="round"
       stroke-linejoin="round"
       stroke-miterlimit="4"
       id="path9"
       style="fill:#ffffff;fill-opacity:1"
       sodipodi:nodetypes="ccccc" />
    <path
       id="path10"
       style="fill:#ffffff;fill-opacity:1;stroke:#000000;stroke-width:16.042;stroke-linecap:butt;stroke-linejoin:round;stroke-dasharray:none;stroke-opacity:1"
       class="vector-data"
       d="m 805.19565,109.61032 -50.315,17.66321 -5.66598,204.63604 65.01004,7.41046 -17.27682,-58.47522 47.21851,4.87817 14.28899,-134.96343 -60.06588,4.80486 z m -10.22953,88.91928 20.74326,14.63633 -19.07403,24.49587 z"
       sodipodi:nodetypes="ccccccccccccc" />
    <path
       class="vector-data"
       d="m 812.37331,88.589979 3.7116,58.128931 h 45.77649 l -25.98124,198.39658 75.95847,-1.29834 -13.42513,-198.81109 22.00604,8.89398 2.36586,-65.244916 -27.30574,2.416479 1.57725,-35.441679 -56.22795,0.10457 7.42321,39.173843 z"
       fill="#ffffff"
       stroke="#000000"
       stroke-width="15.9167"
       stroke-dasharray="none"
       stroke-dashoffset="0"
       stroke-linecap="round"
       stroke-linejoin="round"
       stroke-miterlimit="4"
       id="path11"
       style="fill:#ffffff;fill-opacity:1"
       sodipodi:nodetypes="ccccccccccccc" />
    <path
       class="vector-data"
       d="m 239.80127,38.151847 -23.63396,38.469782 23.14023,35.452991 30.08265,-13.130741 -13.25317,-21.751652 12.11376,-22.80336 z"
       fill="#ffffff"
       stroke="#000000"
       stroke-width="12.7333"
       stroke-dasharray="none"
       stroke-dashoffset="0"
       stroke-linecap="round"
       stroke-linejoin="round"
       stroke-miterlimit="4"
       id="path12"
       style="fill:#ffffff;fill-opacity:1"
       sodipodi:nodetypes="ccccccc" />
    <path
       class="vector-data"
       d="m 352.04495,60.508936 13.32016,18.432844 -11.17245,22.68337 28.79707,14.44381 22.49746,-38.735666 -26.01806,-39.792891 z"
       fill="#ffffff"
       stroke="#000000"
       stroke-width="12.7333"
       stroke-dasharray="none"
       stroke-dashoffset="0"
       stroke-linecap="round"
       stroke-linejoin="round"
       stroke-miterlimit="4"
       id="path13"
       style="fill:#ffffff;fill-opacity:1"
       sodipodi:nodetypes="ccccccc" />
    <path
       class="vector-data"
       d="m 551.97316,69.386148 h 32.92866 v 31.711272 h -32.92866 z"
       fill="#ffffff"
       stroke="#000000"
       stroke-width="12.7333"
       stroke-dasharray="none"
       stroke-dashoffset="0"
       stroke-linecap="round"
       stroke-linejoin="round"
       stroke-miterlimit="4"
       id="path16"
       style="fill:#007acc;fill-opacity:1"
       sodipodi:nodetypes="ccccc" />
    <path
       class="vector-data"
       d="m 633.2167,44.055703 h 32.92867 v 31.71128 H 633.2167 Z"
       fill="#ffffff"
       stroke="#000000"
       stroke-width="12.7333"
       stroke-dasharray="none"
       stroke-dashoffset="0"
       stroke-linecap="round"
       stroke-linejoin="round"
       stroke-miterlimit="4"
       id="path17"
       style="fill:#007acc;fill-opacity:1"
       sodipodi:nodetypes="ccccc" />
    <path
       class="vector-data"
       d="m 630.08666,59.601889 c 0,0 -44.68133,25.583024 -44.68133,25.583024"
       fill="none"
       stroke="#000000"
       stroke-width="12.7333"
       stroke-dasharray="none"
       stroke-dashoffset="0"
       stroke-linecap="butt"
       stroke-linejoin="miter"
       stroke-miterlimit="4"
       id="path18" />
    <path
       class="vector-data"
       d="m 709.93464,58.939676 h 46.55545 v 46.955184 h -46.55545 z"
       fill="#ffffff"
       stroke="#000000"
       stroke-width="15.9167"
       stroke-dasharray="none"
       stroke-dashoffset="0"
       stroke-linecap="round"
       stroke-linejoin="round"
       stroke-miterlimit="4"
       id="path19"
       style="fill:#ffffff;fill-opacity:1"
       sodipodi:nodetypes="ccccc" />
    <path
       class="vector-data"
       d="m 667.13798,60.277675 c 0,0 37.05132,20.949378 37.05132,20.949378"
       fill="none"
       stroke="#000000"
       stroke-width="12.7333"
       stroke-dasharray="none"
       stroke-dashoffset="0"
       stroke-linecap="butt"
       stroke-linejoin="miter"
       stroke-miterlimit="4"
       id="path20" />
    <path
       class="vector-data"
       d="m 301.32487,39.78622 -13.81422,73.32012 35.94214,-0.15071 12.60254,-72.88014 z"
       fill="#ffffff"
       stroke="#000000"
       stroke-width="12.7333"
       stroke-dasharray="none"
       stroke-dashoffset="0"
       stroke-linecap="round"
       stroke-linejoin="round"
       stroke-miterlimit="4"
       id="path24"
       sodipodi:nodetypes="ccccc"
       style="fill:#ffffff;fill-opacity:1" />
  </g>
</svg>
